<svg width="404" height="148" viewBox="0 0 404 148" fill="none" xmlns="http://www.w3.org/2000/svg">
<mask id="path-1-outside-1_1_18" maskUnits="userSpaceOnUse" x="0.3125" y="0.4375" width="404" height="147" fill="black">
<rect fill="white" x="0.3125" y="0.4375" width="404" height="147"/>
<path d="M24.375 62.25V110H10.3125V62.25H4.3125V49.125H10.3125V26.8125H24.375V49.125H35.3125V62.25H24.375Z"/>
<path d="M90.875 49.125H105V110H90.875V103.625C85.0833 109.042 78.8542 111.75 72.1875 111.75C63.7708 111.75 56.8125 108.708 51.3125 102.625C45.8542 96.4167 43.125 88.6667 43.125 79.375C43.125 70.25 45.8542 62.6458 51.3125 56.5625C56.7708 50.4792 63.6042 47.4375 71.8125 47.4375C78.8958 47.4375 85.25 50.3542 90.875 56.1875V49.125ZM57.5 79.375C57.5 85.2083 59.0625 89.9583 62.1875 93.625C65.3958 97.3333 69.4375 99.1875 74.3125 99.1875C79.5208 99.1875 83.7292 97.3958 86.9375 93.8125C90.1458 90.1042 91.75 85.3958 91.75 79.6875C91.75 73.9792 90.1458 69.2708 86.9375 65.5625C83.7292 61.9375 79.5625 60.125 74.4375 60.125C69.6042 60.125 65.5625 61.9583 62.3125 65.625C59.1042 69.3333 57.5 73.9167 57.5 79.375Z"/>
<path d="M136.812 49.125V110H122.75V49.125H136.812ZM120.625 23.8125C120.625 21.3542 121.521 19.2292 123.312 17.4375C125.104 15.6458 127.25 14.75 129.75 14.75C132.292 14.75 134.458 15.6458 136.25 17.4375C138.042 19.1875 138.938 21.3333 138.938 23.875C138.938 26.4167 138.042 28.5833 136.25 30.375C134.5 32.1667 132.354 33.0625 129.812 33.0625C127.271 33.0625 125.104 32.1667 123.312 30.375C121.521 28.5833 120.625 26.3958 120.625 23.8125Z"/>
<path d="M168.688 4.4375V110H154.625V4.4375H168.688Z"/>
<path d="M221.875 59.5L210.25 65.6875C208.417 61.9375 206.146 60.0625 203.438 60.0625C202.146 60.0625 201.042 60.5 200.125 61.375C199.208 62.2083 198.75 63.2917 198.75 64.625C198.75 66.9583 201.458 69.2708 206.875 71.5625C214.333 74.7708 219.354 77.7292 221.938 80.4375C224.521 83.1458 225.812 86.7917 225.812 91.375C225.812 97.25 223.646 102.167 219.312 106.125C215.104 109.875 210.021 111.75 204.062 111.75C193.854 111.75 186.625 106.771 182.375 96.8125L194.375 91.25C196.042 94.1667 197.312 96.0208 198.188 96.8125C199.896 98.3958 201.938 99.1875 204.312 99.1875C209.062 99.1875 211.438 97.0208 211.438 92.6875C211.438 90.1875 209.604 87.8542 205.938 85.6875C204.521 84.9792 203.104 84.2917 201.688 83.625C200.271 82.9583 198.833 82.2708 197.375 81.5625C193.292 79.5625 190.417 77.5625 188.75 75.5625C186.625 73.0208 185.562 69.75 185.562 65.75C185.562 60.4583 187.375 56.0833 191 52.625C194.708 49.1667 199.208 47.4375 204.5 47.4375C212.292 47.4375 218.083 51.4583 221.875 59.5Z"/>
<path d="M252.562 143.125H238.5V49.125H252.562V55.75C258.104 50.2083 264.396 47.4375 271.438 47.4375C279.812 47.4375 286.708 50.5208 292.125 56.6875C297.625 62.8125 300.375 70.5417 300.375 79.875C300.375 89 297.646 96.6042 292.188 102.688C286.771 108.729 279.938 111.75 271.688 111.75C264.562 111.75 258.188 108.896 252.562 103.188V143.125ZM286 79.9375C286 74.1042 284.417 69.3542 281.25 65.6875C278.042 61.9792 274 60.125 269.125 60.125C263.958 60.125 259.771 61.9167 256.562 65.5C253.354 69.0833 251.75 73.7917 251.75 79.625C251.75 85.3333 253.354 90.0417 256.562 93.75C259.729 97.375 263.896 99.1875 269.062 99.1875C273.938 99.1875 277.958 97.3542 281.125 93.6875C284.375 90.0208 286 85.4375 286 79.9375Z"/>
<path d="M329.312 49.125V110H315.25V49.125H329.312ZM313.125 23.8125C313.125 21.3542 314.021 19.2292 315.812 17.4375C317.604 15.6458 319.75 14.75 322.25 14.75C324.792 14.75 326.958 15.6458 328.75 17.4375C330.542 19.1875 331.438 21.3333 331.438 23.875C331.438 26.4167 330.542 28.5833 328.75 30.375C327 32.1667 324.854 33.0625 322.312 33.0625C319.771 33.0625 317.604 32.1667 315.812 30.375C314.021 28.5833 313.125 26.3958 313.125 23.8125Z"/>
<path d="M347.125 49.125H361.25V54.75C366.167 49.875 371.708 47.4375 377.875 47.4375C384.958 47.4375 390.479 49.6667 394.438 54.125C397.854 57.9167 399.562 64.1042 399.562 72.6875V110H385.438V76C385.438 70 384.604 65.8542 382.938 63.5625C381.312 61.2292 378.354 60.0625 374.062 60.0625C369.396 60.0625 366.083 61.6042 364.125 64.6875C362.208 67.7292 361.25 73.0417 361.25 80.625V110H347.125V49.125Z"/>
</mask>
<path d="M24.375 62.25V110H10.3125V62.25H4.3125V49.125H10.3125V26.8125H24.375V49.125H35.3125V62.25H24.375Z" fill="white"/>
<path d="M90.875 49.125H105V110H90.875V103.625C85.0833 109.042 78.8542 111.75 72.1875 111.75C63.7708 111.75 56.8125 108.708 51.3125 102.625C45.8542 96.4167 43.125 88.6667 43.125 79.375C43.125 70.25 45.8542 62.6458 51.3125 56.5625C56.7708 50.4792 63.6042 47.4375 71.8125 47.4375C78.8958 47.4375 85.25 50.3542 90.875 56.1875V49.125ZM57.5 79.375C57.5 85.2083 59.0625 89.9583 62.1875 93.625C65.3958 97.3333 69.4375 99.1875 74.3125 99.1875C79.5208 99.1875 83.7292 97.3958 86.9375 93.8125C90.1458 90.1042 91.75 85.3958 91.75 79.6875C91.75 73.9792 90.1458 69.2708 86.9375 65.5625C83.7292 61.9375 79.5625 60.125 74.4375 60.125C69.6042 60.125 65.5625 61.9583 62.3125 65.625C59.1042 69.3333 57.5 73.9167 57.5 79.375Z" fill="white"/>
<path d="M136.812 49.125V110H122.75V49.125H136.812ZM120.625 23.8125C120.625 21.3542 121.521 19.2292 123.312 17.4375C125.104 15.6458 127.25 14.75 129.75 14.75C132.292 14.75 134.458 15.6458 136.25 17.4375C138.042 19.1875 138.938 21.3333 138.938 23.875C138.938 26.4167 138.042 28.5833 136.25 30.375C134.5 32.1667 132.354 33.0625 129.812 33.0625C127.271 33.0625 125.104 32.1667 123.312 30.375C121.521 28.5833 120.625 26.3958 120.625 23.8125Z" fill="white"/>
<path d="M168.688 4.4375V110H154.625V4.4375H168.688Z" fill="white"/>
<path d="M221.875 59.5L210.25 65.6875C208.417 61.9375 206.146 60.0625 203.438 60.0625C202.146 60.0625 201.042 60.5 200.125 61.375C199.208 62.2083 198.75 63.2917 198.75 64.625C198.75 66.9583 201.458 69.2708 206.875 71.5625C214.333 74.7708 219.354 77.7292 221.938 80.4375C224.521 83.1458 225.812 86.7917 225.812 91.375C225.812 97.25 223.646 102.167 219.312 106.125C215.104 109.875 210.021 111.75 204.062 111.75C193.854 111.75 186.625 106.771 182.375 96.8125L194.375 91.25C196.042 94.1667 197.312 96.0208 198.188 96.8125C199.896 98.3958 201.938 99.1875 204.312 99.1875C209.062 99.1875 211.438 97.0208 211.438 92.6875C211.438 90.1875 209.604 87.8542 205.938 85.6875C204.521 84.9792 203.104 84.2917 201.688 83.625C200.271 82.9583 198.833 82.2708 197.375 81.5625C193.292 79.5625 190.417 77.5625 188.75 75.5625C186.625 73.0208 185.562 69.75 185.562 65.75C185.562 60.4583 187.375 56.0833 191 52.625C194.708 49.1667 199.208 47.4375 204.5 47.4375C212.292 47.4375 218.083 51.4583 221.875 59.5Z" fill="white"/>
<path d="M252.562 143.125H238.5V49.125H252.562V55.75C258.104 50.2083 264.396 47.4375 271.438 47.4375C279.812 47.4375 286.708 50.5208 292.125 56.6875C297.625 62.8125 300.375 70.5417 300.375 79.875C300.375 89 297.646 96.6042 292.188 102.688C286.771 108.729 279.938 111.75 271.688 111.75C264.562 111.75 258.188 108.896 252.562 103.188V143.125ZM286 79.9375C286 74.1042 284.417 69.3542 281.25 65.6875C278.042 61.9792 274 60.125 269.125 60.125C263.958 60.125 259.771 61.9167 256.562 65.5C253.354 69.0833 251.75 73.7917 251.75 79.625C251.75 85.3333 253.354 90.0417 256.562 93.75C259.729 97.375 263.896 99.1875 269.062 99.1875C273.938 99.1875 277.958 97.3542 281.125 93.6875C284.375 90.0208 286 85.4375 286 79.9375Z" fill="white"/>
<path d="M329.312 49.125V110H315.25V49.125H329.312ZM313.125 23.8125C313.125 21.3542 314.021 19.2292 315.812 17.4375C317.604 15.6458 319.75 14.75 322.25 14.75C324.792 14.75 326.958 15.6458 328.75 17.4375C330.542 19.1875 331.438 21.3333 331.438 23.875C331.438 26.4167 330.542 28.5833 328.75 30.375C327 32.1667 324.854 33.0625 322.312 33.0625C319.771 33.0625 317.604 32.1667 315.812 30.375C314.021 28.5833 313.125 26.3958 313.125 23.8125Z" fill="white"/>
<path d="M347.125 49.125H361.25V54.75C366.167 49.875 371.708 47.4375 377.875 47.4375C384.958 47.4375 390.479 49.6667 394.438 54.125C397.854 57.9167 399.562 64.1042 399.562 72.6875V110H385.438V76C385.438 70 384.604 65.8542 382.938 63.5625C381.312 61.2292 378.354 60.0625 374.062 60.0625C369.396 60.0625 366.083 61.6042 364.125 64.6875C362.208 67.7292 361.25 73.0417 361.25 80.625V110H347.125V49.125Z" fill="white"/>
<path d="M24.375 62.25V110H10.3125V62.25H4.3125V49.125H10.3125V26.8125H24.375V49.125H35.3125V62.25H24.375Z" stroke="black" stroke-width="8" mask="url(#path-1-outside-1_1_18)"/>
<path d="M90.875 49.125H105V110H90.875V103.625C85.0833 109.042 78.8542 111.75 72.1875 111.75C63.7708 111.75 56.8125 108.708 51.3125 102.625C45.8542 96.4167 43.125 88.6667 43.125 79.375C43.125 70.25 45.8542 62.6458 51.3125 56.5625C56.7708 50.4792 63.6042 47.4375 71.8125 47.4375C78.8958 47.4375 85.25 50.3542 90.875 56.1875V49.125ZM57.5 79.375C57.5 85.2083 59.0625 89.9583 62.1875 93.625C65.3958 97.3333 69.4375 99.1875 74.3125 99.1875C79.5208 99.1875 83.7292 97.3958 86.9375 93.8125C90.1458 90.1042 91.75 85.3958 91.75 79.6875C91.75 73.9792 90.1458 69.2708 86.9375 65.5625C83.7292 61.9375 79.5625 60.125 74.4375 60.125C69.6042 60.125 65.5625 61.9583 62.3125 65.625C59.1042 69.3333 57.5 73.9167 57.5 79.375Z" stroke="black" stroke-width="8" mask="url(#path-1-outside-1_1_18)"/>
<path d="M136.812 49.125V110H122.75V49.125H136.812ZM120.625 23.8125C120.625 21.3542 121.521 19.2292 123.312 17.4375C125.104 15.6458 127.25 14.75 129.75 14.75C132.292 14.75 134.458 15.6458 136.25 17.4375C138.042 19.1875 138.938 21.3333 138.938 23.875C138.938 26.4167 138.042 28.5833 136.25 30.375C134.5 32.1667 132.354 33.0625 129.812 33.0625C127.271 33.0625 125.104 32.1667 123.312 30.375C121.521 28.5833 120.625 26.3958 120.625 23.8125Z" stroke="black" stroke-width="8" mask="url(#path-1-outside-1_1_18)"/>
<path d="M168.688 4.4375V110H154.625V4.4375H168.688Z" stroke="black" stroke-width="8" mask="url(#path-1-outside-1_1_18)"/>
<path d="M221.875 59.5L210.25 65.6875C208.417 61.9375 206.146 60.0625 203.438 60.0625C202.146 60.0625 201.042 60.5 200.125 61.375C199.208 62.2083 198.75 63.2917 198.75 64.625C198.75 66.9583 201.458 69.2708 206.875 71.5625C214.333 74.7708 219.354 77.7292 221.938 80.4375C224.521 83.1458 225.812 86.7917 225.812 91.375C225.812 97.25 223.646 102.167 219.312 106.125C215.104 109.875 210.021 111.75 204.062 111.75C193.854 111.75 186.625 106.771 182.375 96.8125L194.375 91.25C196.042 94.1667 197.312 96.0208 198.188 96.8125C199.896 98.3958 201.938 99.1875 204.312 99.1875C209.062 99.1875 211.438 97.0208 211.438 92.6875C211.438 90.1875 209.604 87.8542 205.938 85.6875C204.521 84.9792 203.104 84.2917 201.688 83.625C200.271 82.9583 198.833 82.2708 197.375 81.5625C193.292 79.5625 190.417 77.5625 188.75 75.5625C186.625 73.0208 185.562 69.75 185.562 65.75C185.562 60.4583 187.375 56.0833 191 52.625C194.708 49.1667 199.208 47.4375 204.5 47.4375C212.292 47.4375 218.083 51.4583 221.875 59.5Z" stroke="black" stroke-width="8" mask="url(#path-1-outside-1_1_18)"/>
<path d="M252.562 143.125H238.5V49.125H252.562V55.75C258.104 50.2083 264.396 47.4375 271.438 47.4375C279.812 47.4375 286.708 50.5208 292.125 56.6875C297.625 62.8125 300.375 70.5417 300.375 79.875C300.375 89 297.646 96.6042 292.188 102.688C286.771 108.729 279.938 111.75 271.688 111.75C264.562 111.75 258.188 108.896 252.562 103.188V143.125ZM286 79.9375C286 74.1042 284.417 69.3542 281.25 65.6875C278.042 61.9792 274 60.125 269.125 60.125C263.958 60.125 259.771 61.9167 256.562 65.5C253.354 69.0833 251.75 73.7917 251.75 79.625C251.75 85.3333 253.354 90.0417 256.562 93.75C259.729 97.375 263.896 99.1875 269.062 99.1875C273.938 99.1875 277.958 97.3542 281.125 93.6875C284.375 90.0208 286 85.4375 286 79.9375Z" stroke="black" stroke-width="8" mask="url(#path-1-outside-1_1_18)"/>
<path d="M329.312 49.125V110H315.25V49.125H329.312ZM313.125 23.8125C313.125 21.3542 314.021 19.2292 315.812 17.4375C317.604 15.6458 319.75 14.75 322.25 14.75C324.792 14.75 326.958 15.6458 328.75 17.4375C330.542 19.1875 331.438 21.3333 331.438 23.875C331.438 26.4167 330.542 28.5833 328.75 30.375C327 32.1667 324.854 33.0625 322.312 33.0625C319.771 33.0625 317.604 32.1667 315.812 30.375C314.021 28.5833 313.125 26.3958 313.125 23.8125Z" stroke="black" stroke-width="8" mask="url(#path-1-outside-1_1_18)"/>
<path d="M347.125 49.125H361.25V54.75C366.167 49.875 371.708 47.4375 377.875 47.4375C384.958 47.4375 390.479 49.6667 394.438 54.125C397.854 57.9167 399.562 64.1042 399.562 72.6875V110H385.438V76C385.438 70 384.604 65.8542 382.938 63.5625C381.312 61.2292 378.354 60.0625 374.062 60.0625C369.396 60.0625 366.083 61.6042 364.125 64.6875C362.208 67.7292 361.25 73.0417 361.25 80.625V110H347.125V49.125Z" stroke="black" stroke-width="8" mask="url(#path-1-outside-1_1_18)"/>
<circle cx="322.25" cy="23.85" r="9.25" fill="#FF00F8"/>
</svg>
